<svg width="26" height="22" viewBox="0 0 26 22" fill="none" xmlns="http://www.w3.org/2000/svg">
<path d="M6.44379 15.7189H6.4447C6.44547 15.7189 6.44623 15.7188 6.44699 15.7188H17.0703C17.3319 15.7188 17.5618 15.5453 17.6337 15.2938L19.9774 7.09067C20.0279 6.91382 19.9925 6.72369 19.8819 6.5769C19.7711 6.43011 19.5979 6.34375 19.4141 6.34375H5.09247L4.67362 4.45883C4.61395 4.19073 4.37622 4 4.10156 4H0.585938C0.262299 4 0 4.2623 0 4.58594C0 4.90958 0.262299 5.17188 0.585938 5.17188H3.63159C3.70575 5.50589 5.63599 14.1921 5.74707 14.6918C5.12436 14.9625 4.6875 15.5834 4.6875 16.3047C4.6875 17.2739 5.47608 18.0625 6.44531 18.0625H17.0703C17.394 18.0625 17.6563 17.8002 17.6563 17.4766C17.6563 17.1529 17.394 16.8906 17.0703 16.8906H6.44531C6.12229 16.8906 5.85938 16.6277 5.85938 16.3047C5.85938 15.9821 6.12137 15.7197 6.44379 15.7189ZM18.6372 7.51562L16.6283 14.5469H6.91529L5.35279 7.51562H18.6372Z" fill="#222222"/>
<path d="M5.85938 19.8203C5.85938 20.7896 6.64795 21.5781 7.61719 21.5781C8.58643 21.5781 9.375 20.7896 9.375 19.8203C9.375 18.8511 8.58643 18.0625 7.61719 18.0625C6.64795 18.0625 5.85938 18.8511 5.85938 19.8203ZM7.61719 19.2344C7.94022 19.2344 8.20312 19.4973 8.20312 19.8203C8.20312 20.1433 7.94022 20.4062 7.61719 20.4062C7.29416 20.4062 7.03125 20.1433 7.03125 19.8203C7.03125 19.4973 7.29416 19.2344 7.61719 19.2344Z" fill="#222222"/>
<path d="M14.1406 19.8203C14.1406 20.7896 14.9292 21.5781 15.8984 21.5781C16.8677 21.5781 17.6562 20.7896 17.6562 19.8203C17.6562 18.8511 16.8677 18.0625 15.8984 18.0625C14.9292 18.0625 14.1406 18.8511 14.1406 19.8203ZM15.8984 19.2344C16.2215 19.2344 16.4844 19.4973 16.4844 19.8203C16.4844 20.1433 16.2215 20.4062 15.8984 20.4062C15.5754 20.4062 15.3125 20.1433 15.3125 19.8203C15.3125 19.4973 15.5754 19.2344 15.8984 19.2344Z" fill="#222222"/>
<circle cx="21" cy="5" r="5" fill="#188FF7"/>
<path d="M20.2671 3.16V2.662H21.3951V7H20.8431V3.16H20.2671Z" fill="white"/>
</svg>
