<svg width="149" height="31" viewBox="0 0 149 31" fill="none" xmlns="http://www.w3.org/2000/svg">
<path opacity="0.5" fillRule="evenodd" clipRule="evenodd" d="M3.54374 30.4165H9.55043V15.4978H13.5583L14.0891 10.3574H9.55043L9.55798 7.78441C9.55798 6.44366 9.68157 5.72502 11.5561 5.72502H14.0616V0.583252H10.053C5.23835 0.583252 3.54442 3.07664 3.54442 7.2708V10.3581H0.54245V15.4985H3.54374V30.4165ZM57.3911 14.6974C55.3511 14.6974 54.8856 15.8465 54.8856 17.2697V18.0694H59.8939V17.2697C59.8939 15.8465 59.4283 14.6974 57.3911 14.6974ZM76.9177 15.216C75.6927 15.216 74.8097 15.6281 73.9143 16.048V25.5495C74.7719 25.6334 75.2635 25.6334 76.0772 25.6334C79.0174 25.6334 79.4204 24.2518 79.4204 22.3227V17.7847C79.4204 16.3601 78.9597 15.216 76.9177 15.216ZM21.2246 26.2978C20.082 26.2978 19.5643 25.713 19.5643 24.5871C19.5643 23.4549 20.1219 23.2125 21.3908 23.2125H24.0707V25.4664C23.9843 25.5071 23.8994 25.5477 23.8155 25.5878L23.8152 25.588C23.0309 25.9632 22.3317 26.2978 21.2246 26.2978ZM95.9121 15.216C93.8686 15.216 93.1607 16.3601 93.1607 17.7847V22.9836C93.1607 24.4117 93.8686 25.5594 95.9121 25.5594C97.95 25.5594 98.6634 24.4117 98.6634 22.9836V17.7847C98.6627 16.3601 97.9493 15.216 95.9121 15.216ZM30.0788 30.4553H25.0725L24.8562 29.1561C22.5704 30.4553 20.5304 30.6659 19.1846 30.6659C15.5132 30.6659 13.559 28.1493 13.559 24.6688C13.559 20.5628 15.8393 19.0973 19.9186 19.0973H24.0707V18.2096C24.0707 16.1135 23.8366 15.4985 20.6952 15.4985H15.5592L16.0611 10.3581H21.675C28.5675 10.3581 30.0788 12.5922 30.0788 18.2511V30.4553ZM41.5937 15.2068C43.0926 15.2068 43.9873 15.3273 47.1025 15.8754V10.864C44.3739 10.2334 42.5962 10.0678 41.0938 10.0678C34.6449 10.0678 32.0817 13.5539 32.0817 18.5851V22.186C32.0817 27.213 34.6449 30.6927 41.0938 30.6927C42.5962 30.6927 44.3739 30.5278 47.1025 29.9001V24.8858C43.9873 25.4361 43.0926 25.5587 41.5937 25.5587C38.9014 25.5587 38.0877 24.9464 38.0877 22.6003V18.1624C38.0877 15.8162 38.9014 15.2068 41.5937 15.2068ZM65.8999 22.186H54.8849V22.6003C54.8849 24.9464 55.6992 25.5587 58.3908 25.5587C60.8105 25.5587 62.2875 25.4361 65.3973 24.8858V29.9001C62.398 30.5278 60.8353 30.6927 57.893 30.6927C51.4435 30.6927 48.8789 27.213 48.8789 22.186V18.0687C48.8789 13.6702 50.7815 10.0678 57.3904 10.0678C63.9993 10.0678 65.8999 13.6286 65.8999 18.0687V22.186ZM75.874 30.6835C84.0724 30.6835 85.4258 27.1397 85.4258 22.2811H85.4251V17.2704C85.4251 12.8311 84.4246 10.0685 78.4193 10.0685C76.8909 10.0685 75.2114 10.3201 73.9136 10.8147V1.09968L67.909 2.12762V29.9008C71.1767 30.4165 72.9132 30.6835 75.874 30.6835ZM104.674 22.3868C104.674 26.5782 102.988 30.6434 95.932 30.6434C88.8727 30.6434 87.1547 26.5782 87.1547 22.3868V18.3399C87.1547 14.1465 88.8727 10.0805 95.932 10.0805C102.988 10.0805 104.674 14.1465 104.674 18.3399V22.3868ZM115.167 30.6434C122.221 30.6434 123.91 26.5782 123.91 22.3868V18.3399C123.91 14.1465 122.221 10.0805 115.167 10.0805C108.107 10.0805 106.389 14.1465 106.389 18.3399V22.3868C106.389 26.5782 108.107 30.6434 115.167 30.6434ZM143.65 30.4165H137.141L131.636 20.9876V30.4165H125.63V2.12691L131.636 1.09898V19.3108L137.141 10.3581H143.65L137.64 20.128L143.65 30.4165ZM112.398 17.7847C112.398 16.3601 113.106 15.216 115.146 15.216C117.183 15.216 117.904 16.3601 117.904 17.7847V22.9836C117.904 24.4117 117.183 25.5594 115.146 25.5594C113.106 25.5594 112.398 24.4117 112.398 22.9836V17.7847ZM147.078 26.898C148.09 26.898 148.895 27.7442 148.895 28.801C148.895 29.874 148.089 30.711 147.071 30.711C146.057 30.711 145.235 29.874 145.235 28.801C145.235 27.7442 146.057 26.898 147.071 26.898H147.078ZM145.589 28.801C145.589 27.9133 146.256 27.1939 147.071 27.1939H147.078C147.901 27.1939 148.558 27.914 148.558 28.8095C148.558 29.7049 147.901 30.4236 147.078 30.4151C146.256 30.4151 145.589 29.7049 145.589 28.801ZM146.725 29.9085H146.396V27.785L146.412 27.7827C146.579 27.7589 146.741 27.7357 146.981 27.7357C147.294 27.7357 147.498 27.8034 147.624 27.8957C147.746 27.9894 147.811 28.1324 147.811 28.3346C147.811 28.615 147.631 28.7834 147.409 28.8517V28.8679C147.59 28.9025 147.713 29.0701 147.754 29.3823C147.803 29.7127 147.853 29.8388 147.885 29.9078H147.54C147.491 29.8388 147.441 29.645 147.399 29.3653C147.351 29.0955 147.218 28.994 146.955 28.994H146.726V29.9085H146.725ZM146.964 28.7334H146.725V28.0133C146.781 28.0056 146.856 27.9971 146.964 27.9971C147.334 27.9971 147.465 28.1824 147.465 28.3684C147.465 28.6312 147.235 28.7334 146.964 28.7334Z" fill="#828282"/>
</svg>
