<svg width="34" height="34" viewBox="0 0 34 34" fill="none" xmlns="http://www.w3.org/2000/svg">
<path opacity="0.153832" d="M16.6555 33.6646C25.8542 33.6646 33.3111 26.2077 33.3111 17.0091C33.3111 7.81046 25.8542 0.353516 16.6555 0.353516C7.45694 0.353516 0 7.81046 0 17.0091C0 26.2077 7.45694 33.6646 16.6555 33.6646Z" fill="#222222"/>
<path d="M16.0422 21.0295L16.029 17.1136H14.3582V15.5473H16.029V14.5683C16.029 13.1149 16.989 12.4146 18.372 12.4146C19.0344 12.4146 19.6038 12.4608 19.7697 12.4815V14.0003L18.8105 14.0007C18.0584 14.0007 17.9128 14.3357 17.9128 14.8274V15.5473H20.1016L19.2662 17.1136H17.9128V21.0295H16.0422Z" fill="#222222"/>
</svg>
