<svg width="34" height="34" viewBox="0 0 34 34" fill="none" xmlns="http://www.w3.org/2000/svg">
<path opacity="0.153832" d="M16.6555 33.6646C25.8542 33.6646 33.3111 26.2077 33.3111 17.0091C33.3111 7.81046 25.8542 0.353516 16.6555 0.353516C7.45694 0.353516 0 7.81046 0 17.0091C0 26.2077 7.45694 33.6646 16.6555 33.6646Z" fill="#222222"/>
<path d="M19.6474 11H14.2959C12.4785 11 11 12.4826 11 14.3049V19.6709C11 21.4933 12.4785 22.9758 14.2959 22.9758H19.6474C21.4648 22.9758 22.9434 21.4932 22.9434 19.6709V14.3049C22.9434 12.4826 21.4648 11 19.6474 11ZM21.8838 19.6709C21.8838 20.9074 20.8805 21.9133 19.6474 21.9133H14.2959C13.0628 21.9133 12.0597 20.9074 12.0597 19.6709V14.3049C12.0597 13.0685 13.0628 12.0626 14.2959 12.0626H19.6474C20.8805 12.0626 21.8837 13.0685 21.8837 14.3049V19.6709H21.8838Z" fill="#222222"/>
<path d="M16.9713 13.9023C15.2743 13.9023 13.8938 15.2866 13.8938 16.9882C13.8938 18.6897 15.2743 20.0739 16.9713 20.0739C18.6682 20.0739 20.0488 18.6897 20.0488 16.9882C20.0488 15.2866 18.6682 13.9023 16.9713 13.9023ZM16.9713 19.0113C15.8587 19.0113 14.9534 18.1037 14.9534 16.9881C14.9534 15.8725 15.8586 14.9648 16.9713 14.9648C18.0839 14.9648 18.9891 15.8725 18.9891 16.9881C18.9891 18.1037 18.0839 19.0113 16.9713 19.0113Z" fill="#222222"/>
<path d="M20.1786 13.0015C19.9744 13.0015 19.7738 13.0843 19.6296 13.2296C19.4847 13.3741 19.4015 13.5752 19.4015 13.7807C19.4015 13.9855 19.4848 14.1866 19.6296 14.3318C19.7738 14.4763 19.9744 14.5599 20.1786 14.5599C20.3834 14.5599 20.5833 14.4763 20.7282 14.3318C20.873 14.1866 20.9556 13.9854 20.9556 13.7807C20.9556 13.5752 20.873 13.3741 20.7282 13.2296C20.5841 13.0843 20.3834 13.0015 20.1786 13.0015Z" fill="#222222"/>
</svg>
