<svg width="34" height="34" viewBox="0 0 34 34" fill="none" xmlns="http://www.w3.org/2000/svg">
<path opacity="0.153832" d="M17.1836 33.6646C26.3822 33.6646 33.8391 26.2077 33.8391 17.0091C33.8391 7.81046 26.3822 0.353516 17.1836 0.353516C7.98496 0.353516 0.528015 7.81046 0.528015 17.0091C0.528015 26.2077 7.98496 33.6646 17.1836 33.6646Z" fill="#222222"/>
<path fillRule="evenodd" clipRule="evenodd" d="M12.9956 12.4146H21.9455C22.1896 12.4146 22.3523 12.5773 22.3523 12.8214V21.7713C22.3523 22.0154 22.1896 22.1781 21.9455 22.1781H12.9956C12.7515 22.1781 12.5887 22.0154 12.5887 21.7713V12.8214C12.5887 12.5773 12.7515 12.4146 12.9956 12.4146ZM14.0532 20.7543H15.477H15.5177V16.0759H14.0532V20.7543ZM14.7448 15.4248C14.2973 15.4248 13.8905 15.0587 13.8905 14.5705C13.8905 14.123 14.2567 13.7162 14.7448 13.7162C15.1923 13.7162 15.5991 14.0823 15.5991 14.5705C15.5991 15.0587 15.233 15.4248 14.7448 15.4248ZM19.464 20.7541H20.9286V18.2318C20.9286 16.9707 20.6438 15.9943 19.1793 15.9943C18.447 15.9943 17.9995 16.3605 17.7961 16.7266V16.0757H16.4129V20.7541H17.8774V18.4352C17.8774 17.825 17.9588 17.2555 18.7318 17.2555C19.464 17.2555 19.464 17.947 19.464 18.4759V20.7541Z" fill="#222222"/>
</svg>
