<svg width="60" height="60" viewBox="0 0 60 60" fill="none" xmlns="http://www.w3.org/2000/svg">
<g clipPath="url(#clip0)">
<path d="M23.2225 41.5255L23.2298 41.5176L23.2373 41.51C23.5876 41.1598 23.5876 40.6583 23.2373 40.3081L19.6918 36.7625C19.3416 36.4123 18.8401 36.4123 18.4898 36.7625L18.483 36.7693L18.476 36.7758L1.83972 52.185L1.83266 52.1916L1.82536 52.1978C0.99584 52.9089 0.49995 54.1262 0.49995 55.2273C0.49995 57.5421 2.45789 59.5 4.77265 59.5C5.99148 59.5 7.09119 59.0163 7.95723 58.1538L23.2225 41.5255Z" stroke="#222222"/>
<path d="M24.5391 33.4687L21.1965 36.8113L23.1891 38.804L26.5317 35.4614L24.5391 33.4687Z" stroke="#222222"/>
<path d="M21.8182 37.4747L22.1465 37.1464C22.6359 36.657 23.2359 36.3863 23.8637 36.3863C24.3355 36.3863 24.7918 36.5393 25.1971 36.8231L26.5657 35.4546L24.5455 33.4344L21.1617 36.8182L21.8182 37.4747Z" stroke="#222222"/>
<path d="M59.159 20.4545C59.159 9.55062 50.3584 0.75 39.4545 0.75C28.5505 0.75 19.75 9.55062 19.75 20.4545C19.75 31.3584 28.5506 40.159 39.4545 40.159C50.3584 40.159 59.159 31.3584 59.159 20.4545ZM56.5681 20.4546C56.5681 29.8688 48.8687 37.5682 39.4545 37.5682C30.0403 37.5682 22.3409 29.8687 22.3409 20.4545C22.3409 11.0403 30.0403 3.3409 39.4545 3.3409C48.8687 3.3409 56.5681 11.0404 56.5681 20.4546Z" stroke="#222222" strokeWidth="1.5"/>
<path d="M39.5455 36.8181C30.5082 36.8181 23.1819 29.4919 23.1819 20.4545C23.1819 11.4171 30.5082 4.0909 39.5455 4.0909C48.5829 4.0909 55.9091 11.4171 55.9091 20.4545C55.9091 29.4919 48.5829 36.8181 39.5455 36.8181Z" fill="#F78018"/>
<path d="M47.5909 22.3636C46.9091 17.1818 42.8182 13.0909 37.6364 12.4091H37.5C35.1818 12.1364 35.0455 8.8636 37.2273 8.45461C38.5909 8.18192 39.9546 8.18192 41.3182 8.3182C46.6364 9.13641 50.8637 13.3637 51.5455 18.5455C51.8182 19.9091 51.6819 21.4091 51.4091 22.6364C51 24.9546 47.7273 24.6819 47.4546 22.3637C47.5909 22.5 47.5909 22.3636 47.5909 22.3636Z" fill="#E7B488"/>
<path d="M54.5455 21.8182C54.5455 12.8182 47.1819 5.45461 38.1819 5.45461C33.9546 5.45461 30.2728 7.09101 27.2728 9.5455C30.2728 6.1364 34.6364 4.09101 39.5455 4.09101C48.5455 4.09101 55.9091 11.4546 55.9091 20.4546C55.9091 25.3637 53.7273 29.7273 50.4546 32.7273C52.9091 29.7273 54.5455 26.0455 54.5455 21.8182Z" fill="#EF913F"/>
<path d="M1.63643 51.6818L2.45464 51C1.77284 51.8182 1.36373 52.9091 1.36373 54C1.36373 55.7727 3.54553 56.4545 4.77284 55.2273L19.0909 40.9091C19.9091 40.0909 21.1364 40.0909 21.9545 40.9091L23.3181 42.2727L8.45452 58.2272C7.63631 59.0454 6.54542 59.7272 5.45452 59.8636C3.95452 60 2.45452 59.4545 1.50002 58.5C0.54553 57.5455 2.28882e-05 56.0455 0.136431 54.5455C0.136431 53.4545 0.818226 52.5 1.63643 51.6818Z" fill="#222222"/>
<path d="M15.6163 41.7721C15.6356 41.7725 15.6574 41.7727 15.6818 41.7727C15.7529 41.7727 15.8163 41.7718 15.8724 41.7625C15.884 41.7605 15.893 41.7586 15.8996 41.7569L19.2829 38.3736C19.3603 38.2962 19.3603 38.2037 19.2829 38.1263C19.2054 38.0488 19.1129 38.0488 19.0355 38.1263L15.6264 41.5354C15.5525 41.6093 15.5491 41.697 15.6163 41.7721Z" stroke="black"/>
</g>
<defs>
<clipPath id="clip0">
<rect width="60" height="60" fill="white" transform="matrix(-1 0 0 1 60 0)"/>
</clipPath>
</defs>
</svg>
