<svg width="60" height="60" viewBox="0 0 60 60" fill="none" xmlns="http://www.w3.org/2000/svg">
<rect x="1" y="1" width="30" height="21" fill="#F78018" stroke="#222222" strokeWidth="2"/>
<path d="M32.6171 53.7891H27.4414C26.7943 53.7891 26.2696 54.3138 26.2696 54.9609C26.2696 55.608 26.7943 56.1328 27.4414 56.1328H32.6171C33.2642 56.1328 33.789 55.608 33.789 54.9609C33.789 54.3138 33.2644 53.7891 32.6171 53.7891Z" fill="black"/>
<path d="M42.0785 8.82668C41.8607 8.60883 41.5583 8.48332 41.2501 8.48332C40.9419 8.48332 40.6396 8.60871 40.4216 8.82668C40.2036 9.04465 40.0782 9.34699 40.0782 9.6552C40.0782 9.96469 40.2035 10.2657 40.4216 10.4837C40.6396 10.7029 40.9419 10.8271 41.2501 10.8271C41.5583 10.8271 41.8606 10.703 42.0785 10.4837C42.2965 10.2657 42.422 9.9634 42.422 9.6552C42.422 9.34699 42.2966 9.0457 42.0785 8.82668Z" fill="black"/>
<path d="M58.8281 18.045C59.4752 18.045 60 17.5203 60 16.8731V9.6551C60 9.1976 59.7371 8.80221 59.3548 8.60932C59.349 8.60616 59.3439 8.60287 59.3375 8.59971L41.7594 0.116039C41.4376 -0.0393512 41.0625 -0.0393512 40.7407 0.116039L23.1626 8.59971C22.7576 8.79518 22.5001 9.20533 22.5001 9.6551C22.5001 10.1049 22.7576 10.515 23.1626 10.7105L30.0136 14.0169V21.265C30.0136 21.3199 30.018 21.3742 30.0255 21.4276H29.6999C27.5467 21.4276 25.7948 23.1795 25.7948 25.3328C25.7948 27.486 27.5467 29.2378 29.6999 29.2378H30.0784C30.4345 32.5596 32.2439 35.4524 34.8565 37.2668H23.9395C23.2537 37.2668 22.6055 37.4301 22.0314 37.7195V20.425C22.0314 19.3728 22.8874 18.5168 23.9395 18.5168H26.9667C27.6138 18.5168 28.1386 17.9921 28.1386 17.3449C28.1386 16.6978 27.6138 16.1731 26.9667 16.1731H23.9395C22.7283 16.1731 21.6347 16.683 20.8595 17.4983C20.0843 16.683 18.9907 16.1731 17.7795 16.1731H1.17188C0.524766 16.1731 0 16.6978 0 17.3449V38.4387V43.0106C0 43.6577 0.524766 44.1825 1.17188 44.1825H2.57777V49.9214H1.17188C0.524766 49.9214 0 50.4462 0 51.0933V53.2027C0 56.9504 3.0491 59.9995 6.79688 59.9995H53.2031C56.9509 59.9995 60 56.9504 60 53.2027V51.0933C60 50.4462 59.4752 49.9214 58.8281 49.9214H57.4215V32.6949C57.4215 32.0478 56.8968 31.523 56.2496 31.523C55.6025 31.523 55.0778 32.0478 55.0778 32.6949V49.9214H4.92152V44.1824H40.5469C41.194 44.1824 41.7188 43.6576 41.7188 43.0105V39.2581C47.2946 39.028 51.8345 34.7159 52.4217 29.2378H52.8002C54.9534 29.2378 56.7053 27.486 56.7053 25.3328C56.7053 23.1795 54.9534 21.4276 52.8002 21.4276H52.4746C52.4821 21.3742 52.4865 21.3201 52.4865 21.265V14.0169L57.6562 11.5219V16.8731C57.6562 17.5204 58.181 18.045 58.8281 18.045ZM30.0135 26.8942H29.6998C28.8389 26.8942 28.1385 26.1939 28.1385 25.3329C28.1385 24.4719 28.8389 23.7715 29.6998 23.7715H30.0135V26.8942ZM2.34375 18.5168H17.7793C18.8316 18.5168 19.6875 19.3729 19.6875 20.425V37.7195C19.1134 37.4299 18.465 37.2668 17.7793 37.2668H2.34375V18.5168ZM57.6562 52.2652V53.2027C57.6562 55.6581 55.6586 57.6558 53.2031 57.6558H6.79688C4.34145 57.6558 2.34375 55.6581 2.34375 53.2027V52.2652H57.6562ZM2.34375 41.8386V39.6106H17.7793C18.8316 39.6106 19.6875 40.4666 19.6875 41.5187C19.6875 41.6298 19.704 41.7369 19.7329 41.8386H2.34375ZM52.4865 23.7714H52.8002C53.6611 23.7714 54.3615 24.4719 54.3615 25.3328C54.3615 26.1938 53.6611 26.8941 52.8002 26.8941H52.4865V23.7714ZM39.375 41.8389H21.9859V41.8388C22.0148 41.7369 22.0312 41.6298 22.0312 41.5188C22.0312 40.4666 22.8873 39.6107 23.9394 39.6107H39.375V41.8389ZM50.1425 28.0321C50.1428 32.9357 46.1535 36.925 41.25 36.925C36.3465 36.925 32.3572 32.9357 32.3572 28.0321V23.061L40.778 26.7658C40.9283 26.8319 41.0891 26.865 41.2499 26.865C41.4107 26.865 41.5714 26.832 41.7218 26.7658L50.1425 23.061V28.0321ZM50.1428 20.5005L41.25 24.4128L32.3572 20.5003V15.1481L40.7406 19.1942C40.9015 19.2719 41.0757 19.3106 41.25 19.3106C41.4243 19.3106 41.5985 19.2719 41.7594 19.1942L50.1428 15.1481V20.5005ZM44.5459 10.827H53.7039L41.25 16.8376L26.368 9.65522L41.25 2.47268L53.7039 8.48323H44.5459C43.8988 8.48323 43.374 9.00799 43.374 9.6551C43.374 10.3023 43.8988 10.827 44.5459 10.827Z" fill="black"/>
<path d="M59.6565 21.2719C59.4387 21.054 59.1363 20.9285 58.8281 20.9285C58.5199 20.9285 58.2176 21.0539 57.9996 21.2719C57.7816 21.4898 57.6562 21.7922 57.6562 22.1004C57.6562 22.4086 57.7815 22.7109 57.9996 22.9289C58.2176 23.1468 58.5199 23.2723 58.8281 23.2723C59.1363 23.2723 59.4387 23.1469 59.6565 22.9289C59.8745 22.7109 60 22.4086 60 22.1004C60 21.7922 59.8746 21.49 59.6565 21.2719Z" fill="black"/>
<path d="M15.6891 29.8746C15.4699 29.6566 15.1687 29.5312 14.8605 29.5312C14.5523 29.5312 14.25 29.6565 14.0321 29.8746C13.813 30.0937 13.6887 30.3949 13.6887 30.7031C13.6887 31.0113 13.813 31.3137 14.0321 31.5315C14.25 31.7507 14.5513 31.875 14.8605 31.875C15.1687 31.875 15.4711 31.7507 15.6891 31.5315C15.907 31.3137 16.0324 31.0124 16.0324 30.7031C16.0324 30.3949 15.9071 30.0926 15.6891 29.8746Z" fill="black"/>
<path d="M10.4297 29.5332H6.67969C6.03258 29.5332 5.50781 30.058 5.50781 30.7051C5.50781 31.3522 6.03258 31.877 6.67969 31.877H10.4297C11.0768 31.877 11.6016 31.3522 11.6016 30.7051C11.6016 30.058 11.0769 29.5332 10.4297 29.5332Z" fill="black"/>
<path d="M14.8602 23.9077H6.67969C6.03258 23.9077 5.50781 24.4324 5.50781 25.0795C5.50781 25.7266 6.03258 26.2514 6.67969 26.2514H14.8602C15.5073 26.2514 16.0321 25.7266 16.0321 25.0795C16.0321 24.4324 15.5073 23.9077 14.8602 23.9077Z" fill="black"/>
</svg>
