<svg width="34" height="34" viewBox="0 0 34 34" fill="none" xmlns="http://www.w3.org/2000/svg">
<path opacity="0.153832" d="M16.9193 33.3111C26.1179 33.3111 33.5748 25.8542 33.5748 16.6555C33.5748 7.45694 26.1179 0 16.9193 0C7.72068 0 0.263733 7.45694 0.263733 16.6555C0.263733 25.8542 7.72068 33.3111 16.9193 33.3111Z" fill="#222222"/>
<path d="M22.6627 12.5158C22.2966 12.6816 21.9304 12.8059 21.5236 12.8473C21.9304 12.5987 22.2559 12.1842 22.4186 11.7283C22.0118 11.977 21.605 12.1428 21.1575 12.2256C20.7913 11.8112 20.2625 11.5625 19.6929 11.5625C18.5945 11.5625 17.6995 12.4743 17.6995 13.5934C17.6995 13.7592 17.6995 13.9249 17.7402 14.0493C16.0316 13.9664 14.5671 13.1375 13.5907 11.8941C13.3873 12.2256 13.3059 12.5572 13.3059 12.9302C13.3059 13.6348 13.6721 14.2565 14.2009 14.6295C13.8755 14.6295 13.55 14.5466 13.3059 14.3809C13.3059 14.3809 13.3059 14.3809 13.3059 14.4223C13.3059 15.417 13.9975 16.2459 14.8925 16.4117C14.7298 16.4532 14.5671 16.4946 14.3636 16.4946C14.2416 16.4946 14.1196 16.4946 13.9975 16.4532C14.2416 17.2821 14.9739 17.8624 15.8689 17.8624C15.1773 18.4012 14.323 18.7327 13.3873 18.7327C13.2246 18.7327 13.0618 18.7327 12.8991 18.6913C13.7941 19.2715 14.8518 19.6031 15.9502 19.6031C19.6523 19.6031 21.6457 16.4946 21.6457 13.8006C21.6457 13.7177 21.6457 13.6348 21.6457 13.5519C22.0525 13.2618 22.3779 12.8888 22.6627 12.5158Z" fill="#222222"/>
</svg>
