<svg width="59" height="60" viewBox="0 0 59 60" fill="none" xmlns="http://www.w3.org/2000/svg">
<path d="M35.5488 19.6358L24.1773 27.3183L24.0125 12.2031L35.5488 19.6358Z" fill="#F78018"/>
<path d="M23.4753 28.2295C23.6389 28.3189 23.82 28.3636 24 28.3636C24.204 28.3636 24.4069 28.3058 24.5858 28.1935L36.5858 20.5571C36.9 20.3564 37.0909 20.0095 37.0909 19.6364C37.0909 19.2633 36.9 18.9164 36.5858 18.7156L24.5858 11.0793C24.2476 10.8665 23.8255 10.8524 23.4742 11.0433C23.1262 11.2353 22.9091 11.6018 22.9091 12V27.2727C22.9091 27.6709 23.1262 28.0375 23.4753 28.2295ZM25.0909 13.9865L33.9687 19.6364L25.0909 25.2862V13.9865Z" fill="#222222"/>
<path d="M57.2273 2.18182V1.68182H56.7273H2.18182H1.68182V2.18182V38.1818V38.6818H2.18182H56.7273H57.2273V38.1818V2.18182ZM1.68182 57.8182V58.3182H2.18182H56.7273H57.2273V57.8182V40.3636V39.8636H56.7273H2.18182H1.68182V40.3636V57.8182ZM0.5 59.5V0.5H58.4091V59.5H0.5Z" stroke="black"/>
<path d="M51.2727 48H25.0909V45.8182C25.0909 45.2149 24.6033 44.7273 24 44.7273C23.3967 44.7273 22.9091 45.2149 22.9091 45.8182V48H18.5455C17.9422 48 17.4545 48.4876 17.4545 49.0909C17.4545 49.6942 17.9422 50.1818 18.5455 50.1818H22.9091V52.3636C22.9091 52.9669 23.3967 53.4545 24 53.4545C24.6033 53.4545 25.0909 52.9669 25.0909 52.3636V50.1818H51.2727C51.876 50.1818 52.3636 49.6942 52.3636 49.0909C52.3636 48.4876 51.876 48 51.2727 48Z" fill="#222222"/>
<path d="M7.63636 44.7273C7.03309 44.7273 6.54546 45.2149 6.54546 45.8182V52.3636C6.54546 52.9669 7.03309 53.4545 7.63636 53.4545C8.23964 53.4545 8.72727 52.9669 8.72727 52.3636V45.8182C8.72727 45.2149 8.23964 44.7273 7.63636 44.7273Z" fill="#222222"/>
<path d="M12 44.7273C11.3967 44.7273 10.9091 45.2149 10.9091 45.8182V52.3636C10.9091 52.9669 11.3967 53.4545 12 53.4545C12.6033 53.4545 13.0909 52.9669 13.0909 52.3636V45.8182C13.0909 45.2149 12.6033 44.7273 12 44.7273Z" fill="#222222"/>
</svg>
